<svg xmlns="http://www.w3.org/2000/svg" xmlns:xlink="http://www.w3.org/1999/xlink" viewBox="0,0,256,256" width="100px" height="100px"><g fill="none" fill-rule="nonzero" stroke="none" stroke-width="none" stroke-linecap="none" stroke-linejoin="none" stroke-miterlimit="10" stroke-dasharray="" stroke-dashoffset="0" font-family="none" font-weight="none" font-size="none" text-anchor="none" style="mix-blend-mode: normal"><g transform="scale(2.56,2.56)"><path d="M39,58c0,0 -6.75,7.562 -7.75,8.562c-1,1 -3,3 -7,-1c-4,-4 -10.25,-25 -10.25,-34c0,-9 4.234,-15.518 12.187,-16.375c7.703,-0.829 15.813,2.813 15.813,2.813" fill="none" stroke="#cc5de8" stroke-width="2" stroke-linecap="butt" stroke-linejoin="miter"></path><path d="M71.213,56.947c2.681,-2.106 2.968,-8.713 2.489,-12.734c-0.479,-4.021 0.331,-6.392 0.235,-11.275c-3.255,-13.309 -20.325,-22.099 -30.187,-15.876c-9.862,6.223 -8.854,20.137 -8.375,24.062c0.479,3.925 -2.444,6.539 -0.625,12.188c1.819,5.649 7.644,6.698 10.037,6.698c2.394,0 4.883,0.957 4.883,3.543c0,2.586 -0.287,10.34 0.287,16.66c0.574,6.319 3.983,8.376 6.511,8.713c7.878,1.048 10.628,-4.309 11.394,-6.702c0.766,-2.393 2.052,-12.439 2.298,-18.096c0.191,-4.404 3.351,-4.309 3.351,-4.309c0,0 3.608,2.339 9.957,0.415c2.106,-0.638 3.096,0.638 1.468,2.17c-1.628,1.532 -6.017,4.56 -14.124,3.283" fill="none" stroke="#cc5de8" stroke-width="2" stroke-linecap="butt" stroke-linejoin="miter"></path><path d="M74.085,33.617c0,0 -6.523,-2.242 -8.71,2.195c-1.893,3.841 3.987,18.294 8.199,23.592" fill="none" stroke="#cc5de8" stroke-width="2" stroke-linecap="butt" stroke-linejoin="miter"></path><path d="M34.574,36.617c0,0 7.652,-4.612 11.801,-1.867c4.149,2.745 2.561,13.356 0.774,17.25c-1.787,3.894 -2.362,7.787 -2.362,7.787c0,0 -0.447,5.106 -7.596,5.936c-2.809,0.447 -1.915,2.298 0.128,2.872c2.043,0.574 8.681,2.043 12.574,-3.83" fill="none" stroke="#cc5de8" stroke-width="2" stroke-linecap="butt" stroke-linejoin="miter"></path><path d="M57.617,15.809c0,0 17.356,-4.174 25.383,5.629c6.553,8.003 -4.766,33.882 -10.191,38.158" fill="none" stroke="#cc5de8" stroke-width="2" stroke-linecap="round" stroke-linejoin="miter"></path><path d="M69.154,38.037c-1.652,0.168 -3.423,-1.939 -0.096,-2.346c3.119,-0.381 2.265,2.126 0.096,2.346z" fill="#cc5de8" stroke="none" stroke-width="1" stroke-linecap="butt" stroke-linejoin="miter"></path><path d="M43.223,38.848c-1.824,-0.23 -3.212,-2.945 0.481,-2.556c3.461,0.365 1.915,2.859 -0.481,2.556z" fill="#cc5de8" stroke="none" stroke-width="1" stroke-linecap="butt" stroke-linejoin="miter"></path><path d="M39.492,27.447c-0.236,0.688 -0.451,1.425 -0.641,2.213" fill="none" stroke="#cc5de8" stroke-width="1" stroke-linecap="round" stroke-linejoin="round"></path><path d="M47.808,18.479c-2.789,0.876 -5.771,2.939 -7.731,7.456" fill="none" stroke="#cc5de8" stroke-width="1" stroke-linecap="round" stroke-linejoin="round"></path><path d="M55.064,18.298c0,0 -2.11,-0.621 -4.851,-0.319" fill="none" stroke="#cc5de8" stroke-width="1" stroke-linecap="round" stroke-linejoin="round"></path><path d="M20.148,21.817c-1.921,2.074 -3.369,5.451 -3.173,10.945" fill="none" stroke="#cc5de8" stroke-width="1" stroke-linecap="round" stroke-linejoin="round"></path><path d="M28.319,18.553c0,0 -3.417,-0.258 -6.503,1.833" fill="none" stroke="#cc5de8" stroke-width="1" stroke-linecap="round" stroke-linejoin="round"></path><path d="M53.549,82.6c0.649,1.702 1.858,3.266 4.1,3.613" fill="none" stroke="#cc5de8" stroke-width="1" stroke-linecap="round" stroke-linejoin="round"></path><path d="M52.83,77.596c0,0 -0.095,1.358 0.186,3.001" fill="none" stroke="#cc5de8" stroke-width="1" stroke-linecap="round" stroke-linejoin="round"></path></g></g></svg>